<svg width="115" height="115" viewBox="0 0 115 115" fill="none" xmlns="http://www.w3.org/2000/svg">
<g clip-path="url(#clip0_558_14378)">
<rect width="115" height="115" fill="#3F3F46"/>
<path d="M8.9723 40H6.44105L11.0497 26.9091H13.9773L18.5923 40H16.0611L12.5646 29.5938H12.4624L8.9723 40ZM9.0554 34.8672H15.9588V36.772H9.0554V34.8672ZM21.8411 40L18.1465 26.9091H20.6969L23.0556 36.5291H23.177L25.6955 26.9091H28.0158L30.5407 36.5355H30.6557L33.0144 26.9091H35.5648L31.8702 40H29.5307L26.91 30.8146H26.8077L24.1806 40H21.8411ZM37.2092 40V26.9091H45.7234V28.897H39.5806V32.451H45.2823V34.4389H39.5806V38.0121H45.7745V40H37.2092ZM55.2571 30.5078C55.1974 29.9496 54.946 29.5149 54.5028 29.2038C54.0639 28.8928 53.4929 28.7372 52.7898 28.7372C52.2955 28.7372 51.8714 28.8118 51.5178 28.9609C51.1641 29.1101 50.8935 29.3125 50.706 29.5682C50.5185 29.8239 50.4226 30.1158 50.4183 30.4439C50.4183 30.7166 50.4801 30.9531 50.6037 31.1534C50.7315 31.3537 50.9041 31.5241 51.1214 31.6648C51.3388 31.8011 51.5795 31.9162 51.8438 32.0099C52.108 32.1037 52.3743 32.1825 52.6428 32.2464L53.87 32.5533C54.3643 32.6683 54.8395 32.8239 55.2955 33.0199C55.7557 33.2159 56.1669 33.4631 56.5291 33.7614C56.8956 34.0597 57.1854 34.4197 57.3984 34.8416C57.6115 35.2635 57.718 35.7578 57.718 36.3246C57.718 37.0916 57.522 37.767 57.13 38.3509C56.7379 38.9304 56.1712 39.3842 55.4297 39.7124C54.6925 40.0362 53.7997 40.1982 52.7514 40.1982C51.733 40.1982 50.8487 40.0405 50.0987 39.7251C49.353 39.4098 48.7692 38.9496 48.3473 38.3445C47.9297 37.7393 47.7038 37.0021 47.6697 36.1328H50.0028C50.0369 36.5888 50.1776 36.968 50.4247 37.2706C50.6719 37.5732 50.9936 37.799 51.3899 37.9482C51.7905 38.0973 52.2379 38.1719 52.7322 38.1719C53.2479 38.1719 53.6996 38.0952 54.0874 37.9418C54.4794 37.7841 54.7862 37.5668 55.0078 37.2898C55.2294 37.0085 55.3423 36.6804 55.3466 36.3054C55.3423 35.9645 55.2422 35.6832 55.0462 35.4616C54.8501 35.2358 54.5753 35.0483 54.2216 34.8991C53.8722 34.7457 53.4631 34.6094 52.9943 34.4901L51.505 34.1065C50.4268 33.8295 49.5746 33.4098 48.9482 32.8473C48.326 32.2805 48.0149 31.5284 48.0149 30.5909C48.0149 29.8196 48.2237 29.1442 48.6413 28.5646C49.0632 27.9851 49.6364 27.5355 50.3608 27.2159C51.0852 26.892 51.9055 26.7301 52.8217 26.7301C53.7507 26.7301 54.5646 26.892 55.2635 27.2159C55.9666 27.5355 56.5185 27.9808 56.919 28.5518C57.3196 29.1186 57.5263 29.7706 57.5391 30.5078H55.2571ZM71.5297 33.4545C71.5297 34.8651 71.2654 36.0732 70.737 37.0788C70.2129 38.0803 69.497 38.8473 68.5893 39.38C67.6859 39.9126 66.661 40.179 65.5147 40.179C64.3684 40.179 63.3414 39.9126 62.4338 39.38C61.5304 38.843 60.8145 38.0739 60.286 37.0724C59.7619 36.0668 59.4998 34.8608 59.4998 33.4545C59.4998 32.044 59.7619 30.8381 60.286 29.8366C60.8145 28.831 61.5304 28.0618 62.4338 27.5291C63.3414 26.9964 64.3684 26.7301 65.5147 26.7301C66.661 26.7301 67.6859 26.9964 68.5893 27.5291C69.497 28.0618 70.2129 28.831 70.737 29.8366C71.2654 30.8381 71.5297 32.044 71.5297 33.4545ZM69.1454 33.4545C69.1454 32.4616 68.9899 31.6243 68.6788 30.9425C68.372 30.2564 67.9458 29.7386 67.4004 29.3892C66.8549 29.0355 66.2264 28.8587 65.5147 28.8587C64.8031 28.8587 64.1745 29.0355 63.6291 29.3892C63.0836 29.7386 62.6554 30.2564 62.3443 30.9425C62.0375 31.6243 61.8841 32.4616 61.8841 33.4545C61.8841 34.4474 62.0375 35.2869 62.3443 35.973C62.6554 36.6548 63.0836 37.1726 63.6291 37.5263C64.1745 37.8757 64.8031 38.0504 65.5147 38.0504C66.2264 38.0504 66.8549 37.8757 67.4004 37.5263C67.9458 37.1726 68.372 36.6548 68.6788 35.973C68.9899 35.2869 69.1454 34.4474 69.1454 33.4545ZM73.7717 26.9091H76.6737L80.56 36.3949H80.7134L84.5998 26.9091H87.5018V40H85.2262V31.0064H85.1048L81.4869 39.9616H79.7866L76.1687 30.9872H76.0472V40H73.7717V26.9091ZM90.0842 40V26.9091H98.5984V28.897H92.4556V32.451H98.1573V34.4389H92.4556V38.0121H98.6495V40H90.0842Z" fill="#ECEBEF"/>
<path d="M10.6236 67H6.68608L13.8551 46.6364H18.4091L25.5881 67H21.6506L16.2116 50.8125H16.0526L10.6236 67ZM10.7528 59.0156H21.4915V61.9787H10.7528V59.0156ZM31.7106 46.6364V67H28.1112V46.6364H31.7106ZM43.0384 51.7273V54.5114H34.2585V51.7273H43.0384ZM36.4261 48.0682H40.0256V62.4062C40.0256 62.8902 40.0985 63.2614 40.2443 63.5199C40.3968 63.7718 40.5956 63.9441 40.8409 64.0369C41.0862 64.1297 41.358 64.1761 41.6562 64.1761C41.8816 64.1761 42.0871 64.1596 42.2727 64.1264C42.465 64.0933 42.6108 64.0634 42.7102 64.0369L43.3168 66.8509C43.1245 66.9171 42.8494 66.9901 42.4915 67.0696C42.1402 67.1491 41.7093 67.1955 41.1989 67.2088C40.2973 67.2353 39.4853 67.0994 38.7628 66.8011C38.0402 66.4962 37.4669 66.0256 37.0426 65.3892C36.625 64.7528 36.4195 63.9574 36.4261 63.0028V48.0682ZM25.4389 75.5071H21.7202C21.6141 74.8973 21.4186 74.357 21.1335 73.8864C20.8485 73.4091 20.4938 73.0047 20.0696 72.6733C19.6454 72.3419 19.1615 72.0933 18.6179 71.9276C18.081 71.7552 17.5009 71.669 16.8778 71.669C15.7708 71.669 14.7898 71.9474 13.9347 72.5043C13.0795 73.0544 12.41 73.8632 11.9261 74.9304C11.4422 75.991 11.2003 77.2869 11.2003 78.8182C11.2003 80.3759 11.4422 81.6884 11.9261 82.7557C12.4167 83.8163 13.0862 84.6184 13.9347 85.1619C14.7898 85.6989 15.7675 85.9673 16.8679 85.9673C17.4777 85.9673 18.0478 85.8878 18.5781 85.7287C19.1151 85.563 19.5956 85.321 20.0199 85.0028C20.4508 84.6847 20.812 84.2936 21.1037 83.8295C21.402 83.3655 21.6075 82.8352 21.7202 82.2386L25.4389 82.2585C25.2997 83.2263 24.9981 84.1345 24.5341 84.983C24.0767 85.8314 23.4768 86.5805 22.7344 87.2301C21.992 87.8731 21.1236 88.3769 20.1293 88.7415C19.1349 89.0994 18.0313 89.2784 16.8182 89.2784C15.0284 89.2784 13.4309 88.8641 12.0256 88.0355C10.6203 87.2069 9.51326 86.0104 8.70455 84.446C7.89583 82.8816 7.49148 81.0057 7.49148 78.8182C7.49148 76.6241 7.89915 74.7481 8.71449 73.1903C9.52983 71.6259 10.6402 70.4295 12.0455 69.6009C13.4508 68.7723 15.0417 68.358 16.8182 68.358C17.9517 68.358 19.0057 68.517 19.9801 68.8352C20.9545 69.1534 21.8229 69.6207 22.5852 70.2372C23.3475 70.8471 23.974 71.5961 24.4645 72.4844C24.9616 73.366 25.2865 74.3736 25.4389 75.5071ZM32.2575 68.6364V89H28.658V68.6364H32.2575ZM42.6207 89.2983C41.1293 89.2983 39.8366 88.9702 38.7429 88.3139C37.6491 87.6577 36.8007 86.7396 36.1974 85.5597C35.6009 84.3797 35.3026 83.0009 35.3026 81.4233C35.3026 79.8456 35.6009 78.4635 36.1974 77.277C36.8007 76.0904 37.6491 75.169 38.7429 74.5128C39.8366 73.8565 41.1293 73.5284 42.6207 73.5284C44.1122 73.5284 45.4048 73.8565 46.4986 74.5128C47.5923 75.169 48.4375 76.0904 49.0341 77.277C49.6373 78.4635 49.9389 79.8456 49.9389 81.4233C49.9389 83.0009 49.6373 84.3797 49.0341 85.5597C48.4375 86.7396 47.5923 87.6577 46.4986 88.3139C45.4048 88.9702 44.1122 89.2983 42.6207 89.2983ZM42.6406 86.4148C43.4493 86.4148 44.1255 86.1927 44.669 85.7486C45.2126 85.2978 45.617 84.6946 45.8821 83.9389C46.1539 83.1832 46.2898 82.3414 46.2898 81.4134C46.2898 80.4787 46.1539 79.6335 45.8821 78.8778C45.617 78.1155 45.2126 77.509 44.669 77.0582C44.1255 76.6075 43.4493 76.3821 42.6406 76.3821C41.812 76.3821 41.1226 76.6075 40.5724 77.0582C40.0289 77.509 39.6212 78.1155 39.3494 78.8778C39.0843 79.6335 38.9517 80.4787 38.9517 81.4134C38.9517 82.3414 39.0843 83.1832 39.3494 83.9389C39.6212 84.6946 40.0289 85.2978 40.5724 85.7486C41.1226 86.1927 41.812 86.4148 42.6406 86.4148ZM62.7283 82.5767V73.7273H66.3278V89H62.8377V86.2855H62.6786C62.3339 87.1406 61.7672 87.84 60.9783 88.3835C60.1961 88.9271 59.2317 89.1989 58.0849 89.1989C57.0839 89.1989 56.199 88.9768 55.43 88.5327C54.6677 88.0819 54.0711 87.429 53.6403 86.5739C53.2094 85.7121 52.994 84.6714 52.994 83.4517V73.7273H56.5934V82.8949C56.5934 83.8627 56.8585 84.6316 57.3888 85.2017C57.9192 85.7718 58.6152 86.0568 59.4769 86.0568C60.0072 86.0568 60.521 85.9276 61.0181 85.669C61.5153 85.4105 61.9229 85.026 62.2411 84.5156C62.5659 83.9986 62.7283 83.3523 62.7283 82.5767ZM75.6967 89.2685C74.4969 89.2685 73.4231 88.9602 72.4751 88.3438C71.5272 87.7273 70.7782 86.8324 70.228 85.6591C69.6778 84.4858 69.4027 83.0606 69.4027 81.3835C69.4027 79.6866 69.6811 78.2547 70.2379 77.0881C70.8014 75.9148 71.5604 75.0298 72.5149 74.4332C73.4695 73.83 74.5334 73.5284 75.7067 73.5284C76.6016 73.5284 77.3374 73.6809 77.9141 73.9858C78.4908 74.2841 78.9482 74.6454 79.2862 75.0696C79.6243 75.4872 79.8861 75.8816 80.0717 76.2528H80.2209V68.6364H83.8303V89H80.2905V86.5938H80.0717C79.8861 86.965 79.6177 87.3594 79.2663 87.777C78.915 88.188 78.451 88.5393 77.8743 88.831C77.2976 89.1226 76.5717 89.2685 75.6967 89.2685ZM76.701 86.3153C77.4633 86.3153 78.1129 86.1098 78.6499 85.6989C79.1868 85.2812 79.5945 84.7012 79.8729 83.9588C80.1513 83.2164 80.2905 82.3513 80.2905 81.3636C80.2905 80.3759 80.1513 79.5175 79.8729 78.7884C79.6011 78.0592 79.1967 77.4924 78.6598 77.0881C78.1295 76.6837 77.4766 76.4815 76.701 76.4815C75.8989 76.4815 75.2294 76.6903 74.6925 77.108C74.1555 77.5256 73.7512 78.1023 73.4794 78.8381C73.2076 79.5739 73.0717 80.4157 73.0717 81.3636C73.0717 82.3182 73.2076 83.17 73.4794 83.919C73.7578 84.6615 74.1655 85.2481 74.7024 85.679C75.246 86.1032 75.9122 86.3153 76.701 86.3153ZM99.7369 77.7642L96.4556 78.1222C96.3628 77.7907 96.2004 77.4792 95.9684 77.1875C95.743 76.8958 95.4381 76.6605 95.0536 76.4815C94.6692 76.3026 94.1985 76.2131 93.6417 76.2131C92.8926 76.2131 92.2629 76.3755 91.7525 76.7003C91.2487 77.0251 91.0001 77.446 91.0067 77.9631C91.0001 78.4072 91.1625 78.7685 91.494 79.0469C91.832 79.3253 92.3888 79.554 93.1644 79.733L95.7695 80.2898C97.2146 80.6013 98.2885 81.0952 98.9911 81.7713C99.7004 82.4474 100.058 83.3324 100.065 84.4261C100.058 85.3873 99.7766 86.2358 99.2198 86.9716C98.6696 87.7008 97.904 88.2708 96.9229 88.6818C95.9419 89.0928 94.815 89.2983 93.5423 89.2983C91.6729 89.2983 90.1682 88.9072 89.0281 88.125C87.8879 87.3362 87.2085 86.2391 86.9897 84.8338L90.4996 84.4957C90.6587 85.1851 90.9968 85.7055 91.5138 86.0568C92.0309 86.4081 92.7037 86.5838 93.5323 86.5838C94.3874 86.5838 95.0735 86.4081 95.5906 86.0568C96.1142 85.7055 96.3761 85.2713 96.3761 84.7543C96.3761 84.3168 96.207 83.9555 95.869 83.6705C95.5375 83.3854 95.0205 83.1667 94.3178 83.0142L91.7127 82.4673C90.2478 82.1624 89.1639 81.6487 88.4613 80.9261C87.7586 80.197 87.4106 79.2756 87.4173 78.1619C87.4106 77.2206 87.6658 76.4053 88.1829 75.7159C88.7066 75.0199 89.4324 74.483 90.3604 74.1051C91.2951 73.7206 92.3723 73.5284 93.592 73.5284C95.3817 73.5284 96.7904 73.9096 97.8178 74.6719C98.8519 75.4342 99.4916 76.465 99.7369 77.7642Z" fill="#F27A67"/>
</g>
<defs>
<clipPath id="clip0_558_14378">
<rect width="115" height="115" fill="white"/>
</clipPath>
</defs>
</svg>
